<?xml version="1.0" encoding="iso-8859-1"?>
<!-- Generator: Adobe Illustrator 19.0.0, SVG Export Plug-In . SVG Version: 6.00 Build 0)  -->
<svg version="1.1" id="Capa_1" xmlns="http://www.w3.org/2000/svg" xmlns:xlink="http://www.w3.org/1999/xlink" x="0px" y="0px"
	 viewBox="0 0 480 480" style="enable-background:new 0 0 480 480;" xml:space="preserve">
<g>
	<g>
		<path d="M240,0C135.256,0,72.328,85.232,72,167.64c-0.184,46.752,19.368,91.832,53.648,123.672C152,315.808,168,333.2,168,368.36
			V376v16c0,6.168,2.408,11.744,6.24,16c-3.84,4.256-6.24,9.832-6.24,16c0,13.232,10.768,24,24,24h0.808
			c3.72,18.232,19.872,32,39.192,32h16c19.312,0,35.472-13.768,39.192-32H288c13.232,0,24-10.768,24-24
			c0-6.168-2.408-11.744-6.24-16c3.84-4.256,6.24-9.832,6.24-16v-16v-7.672c0-35.464,15.792-52.552,41.792-76.488
			C388.24,260.128,408,215.104,408,168.328C408,70.792,337.344,0,240,0z M248,464h-16c-10.432,0-19.328-6.688-22.632-16h61.264
			C267.328,457.312,258.432,464,248,464z M288,432h-8h-80h-8c-4.416,0-8-3.584-8-8c0-4.416,3.584-8,8-8h96c4.416,0,8,3.584,8,8
			C296,428.416,292.416,432,288,432z M296,392c0,4.416-3.584,8-8,8h-96c-4.416,0-8-3.584-8-8v-8h112V392z M342.952,280.08
			C315.528,305.312,296.104,326.408,296,368h-16V176h49.472c3.312,9.288,12.112,16,22.528,16c13.232,0,24-10.768,24-24
			s-10.768-24-24-24c-10.416,0-19.216,6.712-22.528,16H272c-4.424,0-8,3.576-8,8v200h-16V128c0-4.424-3.576-8-8-8h-49.472
			c-3.312-9.288-12.112-16-22.528-16c-13.232,0-24,10.768-24,24s10.768,24,24,24c10.416,0,19.216-6.712,22.528-16H232v232h-16V208
			c0-4.424-3.576-8-8-8h-49.472c-3.312-9.288-12.112-16-22.528-16c-13.232,0-24,10.768-24,24s10.768,24,24,24
			c10.416,0,19.216-6.712,22.528-16H200v152h-16c-0.112-41.224-19.752-62.656-47.464-88.408
			C105.52,250.776,87.824,209.992,88,167.704c0.288-72.416,54.104-147.032,144-151.296V80c0,4.424,3.576,8,8,8h41.472
			c3.312,9.288,12.112,16,22.528,16c13.232,0,24-10.768,24-24s-10.768-24-24-24c-10.416,0-19.216,6.712-22.528,16H248V16.352
			c85.152,3.656,144,65.016,144,151.976C392,210.64,374.128,251.376,342.952,280.08z M344,168c0-4.416,3.584-8,8-8
			c4.416,0,8,3.584,8,8s-3.584,8-8,8C347.584,176,344,172.416,344,168z M176,128c0,4.416-3.584,8-8,8s-8-3.584-8-8s3.584-8,8-8
			S176,123.584,176,128z M144,208c0,4.416-3.584,8-8,8s-8-3.584-8-8s3.584-8,8-8S144,203.584,144,208z M296,80c0-4.416,3.584-8,8-8
			c4.416,0,8,3.584,8,8s-3.584,8-8,8C299.584,88,296,84.416,296,80z"/>
	</g>
</g>
<g>
	<g>
		<path d="M472,34c-13.232,0-24-10.768-24-24c0-4.424-3.576-8-8-8s-8,3.576-8,8c0,13.232-10.768,24-24,24c-4.424,0-8,3.576-8,8
			s3.576,8,8,8c13.232,0,24,10.768,24,24c0,4.424,3.576,8,8,8s8-3.576,8-8c0-13.232,10.768-24,24-24c4.424,0,8-3.576,8-8
			S476.424,34,472,34z M440,50.024c-2.28-3.04-4.984-5.744-8.024-8.024c3.04-2.28,5.744-4.984,8.024-8.024
			c2.28,3.04,4.984,5.744,8.024,8.024C444.984,44.28,442.28,46.984,440,50.024z"/>
	</g>
</g>
<g>
	<g>
		<path d="M104,378c-22.056,0-40-17.944-40-40c0-4.424-3.576-8-8-8s-8,3.576-8,8c0,22.056-17.944,40-40,40c-4.424,0-8,3.576-8,8
			s3.576,8,8,8c22.056,0,40,17.944,40,40c0,4.424,3.576,8,8,8s8-3.576,8-8c0-22.056,17.944-40,40-40c4.424,0,8-3.576,8-8
			S108.424,378,104,378z M56,405.176c-4.728-7.84-11.336-14.456-19.176-19.176c7.84-4.728,14.456-11.336,19.176-19.176
			c4.728,7.84,11.336,14.456,19.176,19.176C67.336,390.728,60.728,397.336,56,405.176z"/>
	</g>
</g>
<g>
</g>
<g>
</g>
<g>
</g>
<g>
</g>
<g>
</g>
<g>
</g>
<g>
</g>
<g>
</g>
<g>
</g>
<g>
</g>
<g>
</g>
<g>
</g>
<g>
</g>
<g>
</g>
<g>
</g>
</svg>
