<?xml version="1.0" encoding="iso-8859-1"?>
<!-- Generator: Adobe Illustrator 19.0.0, SVG Export Plug-In . SVG Version: 6.00 Build 0)  -->
<svg version="1.1" id="Capa_1" xmlns="http://www.w3.org/2000/svg" xmlns:xlink="http://www.w3.org/1999/xlink" x="0px" y="0px"
	 viewBox="0 0 480 480" style="enable-background:new 0 0 480 480;" xml:space="preserve">
<g>
	<g>
		<path d="M168,32c-13.232,0-24,10.768-24,24s10.768,24,24,24s24-10.768,24-24S181.232,32,168,32z M168,64c-4.416,0-8-3.584-8-8
			s3.584-8,8-8s8,3.584,8,8S172.416,64,168,64z"/>
	</g>
</g>
<g>
	<g>
		<rect x="240" y="48" width="96" height="16"/>
	</g>
</g>
<g>
	<g>
		<path d="M168,128c-13.232,0-24,10.768-24,24s10.768,24,24,24s24-10.768,24-24S181.232,128,168,128z M168,160c-4.416,0-8-3.584-8-8
			s3.584-8,8-8s8,3.584,8,8S172.416,160,168,160z"/>
	</g>
</g>
<g>
	<g>
		<rect x="240" y="144" width="96" height="16"/>
	</g>
</g>
<g>
	<g>
		<path d="M168,224c-13.232,0-24,10.768-24,24s10.768,24,24,24s24-10.768,24-24S181.232,224,168,224z M168,256c-4.416,0-8-3.584-8-8
			c0-4.416,3.584-8,8-8s8,3.584,8,8C176,252.416,172.416,256,168,256z"/>
	</g>
</g>
<g>
	<g>
		<rect x="240" y="240" width="96" height="16"/>
	</g>
</g>
<g>
	<g>
		<path d="M168,320c-13.232,0-24,10.768-24,24s10.768,24,24,24s24-10.768,24-24S181.232,320,168,320z M168,352c-4.416,0-8-3.584-8-8
			c0-4.416,3.584-8,8-8s8,3.584,8,8C176,348.416,172.416,352,168,352z"/>
	</g>
</g>
<g>
	<g>
		<rect x="240" y="336" width="96" height="16"/>
	</g>
</g>
<g>
	<g>
		<path d="M472,80H368V8c0-4.424-3.576-8-8-8H120c-4.424,0-8,3.576-8,8v72H8c-4.424,0-8,3.576-8,8v96v96v96v96c0,4.424,3.576,8,8,8
			h216c4.424,0,8-3.576,8-8v-72h16v72c0,4.424,3.576,8,8,8h216c4.424,0,8-3.576,8-8v-96v-96v-96V88C480,83.576,476.424,80,472,80z
			 M128,88V16h224v72v8H128V88z M128,184v-72h224v72v8H128V184z M128,280v-72h224v72v8H128V280z M16,96h96v8v72H16V96z M16,192h96v8
			v72H16V192z M16,288h96v8v72H16V288z M216,464H16v-80h96v8c0,4.424,3.576,8,8,8h96V464z M224,384h-96v-8v-72h224v72v8h-96H224z
			 M464,464H264v-64h40h56c4.424,0,8-3.576,8-8v-8h96V464z M464,368h-96v-32h80v-16h-80v-24v-8h96V368z M464,272h-96v-32h80v-16h-80
			v-24v-8h96V272z M464,176h-96v-32h80v-16h-80v-24v-8h96V176z"/>
	</g>
</g>
<g>
	<g>
		<path d="M56,112c-13.232,0-24,10.768-24,24s10.768,24,24,24s24-10.768,24-24S69.232,112,56,112z M56,144c-4.416,0-8-3.584-8-8
			s3.584-8,8-8s8,3.584,8,8S60.416,144,56,144z"/>
	</g>
</g>
<g>
	<g>
		<path d="M56,208c-13.232,0-24,10.768-24,24s10.768,24,24,24s24-10.768,24-24S69.232,208,56,208z M56,240c-4.416,0-8-3.584-8-8
			s3.584-8,8-8s8,3.584,8,8S60.416,240,56,240z"/>
	</g>
</g>
<g>
	<g>
		<path d="M56,304c-13.232,0-24,10.768-24,24s10.768,24,24,24s24-10.768,24-24S69.232,304,56,304z M56,336c-4.416,0-8-3.584-8-8
			c0-4.416,3.584-8,8-8s8,3.584,8,8C64,332.416,60.416,336,56,336z"/>
	</g>
</g>
<g>
	<g>
		<path d="M56,400c-13.232,0-24,10.768-24,24s10.768,24,24,24s24-10.768,24-24S69.232,400,56,400z M56,432c-4.416,0-8-3.584-8-8
			c0-4.416,3.584-8,8-8s8,3.584,8,8C64,428.416,60.416,432,56,432z"/>
	</g>
</g>
<g>
	<g>
		<rect x="104" y="416" width="96" height="16"/>
	</g>
</g>
<g>
	<g>
		<path d="M304,400c-13.232,0-24,10.768-24,24s10.768,24,24,24s24-10.768,24-24S317.232,400,304,400z M304,432c-4.416,0-8-3.584-8-8
			c0-4.416,3.584-8,8-8c4.416,0,8,3.584,8,8C312,428.416,308.416,432,304,432z"/>
	</g>
</g>
<g>
	<g>
		<rect x="352" y="416" width="96" height="16"/>
	</g>
</g>
<g>
</g>
<g>
</g>
<g>
</g>
<g>
</g>
<g>
</g>
<g>
</g>
<g>
</g>
<g>
</g>
<g>
</g>
<g>
</g>
<g>
</g>
<g>
</g>
<g>
</g>
<g>
</g>
<g>
</g>
</svg>
