<?xml version="1.0" encoding="iso-8859-1"?>
<!-- Generator: Adobe Illustrator 19.0.0, SVG Export Plug-In . SVG Version: 6.00 Build 0)  -->
<svg version="1.1" id="Capa_1" xmlns="http://www.w3.org/2000/svg" xmlns:xlink="http://www.w3.org/1999/xlink" x="0px" y="0px"
	 viewBox="0 0 480 480" style="enable-background:new 0 0 480 480;" xml:space="preserve">
<g>
	<g>
		<path d="M440,0H40C17.944,0,0,17.944,0,40v304c0,22.056,17.944,40,40,40h157.752l-12,48H128c-4.416,0-8,3.584-8,8
			c0,22.056,17.944,40,40,40h160c22.056,0,40-17.944,40-40c0-4.416-3.584-8-8-8h-57.752l-12-48H440c22.056,0,40-17.944,40-40V40
			C480,17.944,462.056,0,440,0z M288,448h54.632c-3.304,9.312-12.2,16-22.632,16H160c-10.432,0-19.328-6.688-22.632-16H192H288z
			 M202.248,432l12-48h51.504l12,48H202.248z M464,344c0,13.232-10.768,24-24,24H272h-64H40c-13.232,0-24-10.768-24-24v-8h448V344z
			 M464,320H16V40c0-13.232,10.768-24,24-24h400c13.232,0,24,10.768,24,24V320z"/>
	</g>
</g>
<g>
	<g>
		<path d="M274.128,36.512c-0.048-0.016-0.088-0.048-0.136-0.064c-0.264-0.072-0.536-0.112-0.8-0.184
			c-3.912-0.984-7.888-1.792-11.92-2.432c-1.736-0.28-3.464-0.576-5.192-0.792c-1.552-0.184-3.104-0.328-4.672-0.464
			C247.576,32.232,243.768,32,240,32c-74.992,0-136,61.008-136,136c0,60.072,39.192,111.08,93.312,129.032
			c0.064,0.024,0.12,0.072,0.184,0.096c0.128,0.04,0.256,0.072,0.376,0.112c1.76,0.576,3.56,1.064,5.352,1.568
			c1.64,0.456,3.296,0.888,4.96,1.28c7.456,1.8,15.136,2.96,23.016,3.464c0.096,0.008,0.192,0.024,0.296,0.024
			c0.168,0.008,0.336,0.016,0.496,0.016c0.008,0,0.008,0,0.016,0c2.664,0.16,5.296,0.408,7.992,0.408
			c4.224,0,8.512-0.224,12.84-0.648c3.856-0.36,7.64-0.96,11.392-1.64c0.424-0.08,0.84-0.104,1.264-0.184
			c0.016,0,0.032-0.016,0.056-0.024C328.36,289.512,376,234.256,376,168C376,104.816,332.624,51.712,274.128,36.512z M224,72
			c4.408,0,8,3.592,8,8s-3.592,8-8,8s-8-3.592-8-8S219.592,72,224,72z M272,283.536V224c0-4.408,3.592-8,8-8h1.472
			c3.312,9.288,12.112,16,22.528,16c13.232,0,24-10.768,24-24s-10.768-24-24-24c-10.416,0-19.216,6.712-22.528,16H280
			c-13.232,0-24,10.768-24,24v62.808c-0.504,0.064-0.992,0.168-1.496,0.232c-1.448,0.184-2.88,0.32-4.32,0.448
			C246.824,287.768,243.44,288,240,288V144c0-13.232-10.768-24-24-24h-17.472c-3.312-9.288-12.112-16-22.528-16
			c-13.232,0-24,10.768-24,24s10.768,24,24,24c10.416,0,19.216-6.712,22.528-16H216c4.408,0,8,3.592,8,8v142.8
			c-4.568-0.6-9.032-1.504-13.408-2.592c-0.864-0.216-1.728-0.432-2.592-0.664V208c0-13.232-10.768-24-24-24h-1.472
			c-3.312-9.288-12.112-16-22.528-16c-13.232,0-24,10.768-24,24s10.768,24,24,24c10.416,0,19.216-6.712,22.528-16H184
			c4.408,0,8,3.592,8,8v69.912c-42.328-18.56-72-60.808-72-109.912c0-57.952,41.296-106.432,96-117.584v7.056
			c-9.288,3.312-16,12.112-16,22.528c0,13.232,10.768,24,24,24s24-10.768,24-24c0-10.416-6.712-19.216-16-22.528v-9.064
			c2.656-0.176,5.296-0.408,8-0.408c7.832,0,15.88,0.856,24,2.544V128c0,13.232,10.768,24,24,24h9.472
			c3.312,9.288,12.112,16,22.528,16c13.232,0,24-10.768,24-24s-10.768-24-24-24c-10.416,0-19.216,6.712-22.528,16H288
			c-4.408,0-8-3.592-8-8V55c46.528,16.528,80,60.872,80,113C360,223.072,322.656,269.48,272,283.536z M296,208c0-4.408,3.592-8,8-8
			c4.408,0,8,3.592,8,8s-3.592,8-8,8C299.592,216,296,212.408,296,208z M184,128c0,4.408-3.592,8-8,8s-8-3.592-8-8s3.592-8,8-8
			S184,123.592,184,128z M168,192c0,4.408-3.592,8-8,8s-8-3.592-8-8s3.592-8,8-8S168,187.592,168,192z M312,144c0-4.408,3.592-8,8-8
			c4.408,0,8,3.592,8,8s-3.592,8-8,8C315.592,152,312,148.408,312,144z"/>
	</g>
</g>
<g>
</g>
<g>
</g>
<g>
</g>
<g>
</g>
<g>
</g>
<g>
</g>
<g>
</g>
<g>
</g>
<g>
</g>
<g>
</g>
<g>
</g>
<g>
</g>
<g>
</g>
<g>
</g>
<g>
</g>
</svg>
